<?xml version="1.0" encoding="UTF-8"?>
<svg version="1.1" xmlns="http://www.w3.org/2000/svg" width="512" height="512">
<path d="M0 0 C0.96366486 0.00021149 1.92732971 0.00042297 2.92019653 0.00064087 C19.1722374 0.03610182 34.7817396 1.14876508 50.75 4.375 C51.66571777 4.55160156 52.58143555 4.72820313 53.52490234 4.91015625 C80.90353609 10.3089009 107.97291338 20.75378204 131.75 35.375 C132.32943359 35.73062012 132.90886719 36.08624023 133.50585938 36.45263672 C158.76317127 52.04909567 182.41730349 71.95522016 200.75 95.375 C201.54019531 96.35984375 202.33039063 97.3446875 203.14453125 98.359375 C229.17327463 131.09006836 246.02077916 170.39924332 253.75 211.375 C253.91516113 212.24092773 254.08032227 213.10685547 254.25048828 213.99902344 C259.23121525 241.6170772 259.03843271 272.83063806 253.75 300.375 C253.51651855 301.70096191 253.51651855 301.70096191 253.27832031 303.05371094 C244.34570495 353.2796141 219.69973219 398.56831254 184.75 435.375 C183.99178955 436.17623291 183.99178955 436.17623291 183.21826172 436.99365234 C175.79639614 444.78117267 168.00552618 451.68039996 159.39941406 458.13134766 C157.87444203 459.28117115 156.369807 460.45783435 154.8671875 461.63671875 C115.01379327 492.55362764 63.13686716 512.29597007 12.4296875 512.578125 C11.57649933 512.58518463 10.72331116 512.59224426 9.8442688 512.59951782 C-31.91507335 512.86643702 -71.35108248 506.78055014 -109.25 488.375 C-110.06936035 487.97829102 -110.8887207 487.58158203 -111.73291016 487.17285156 C-131.90530626 477.28419647 -150.23191901 465.02257906 -167.25 450.375 C-168.14589844 449.60929687 -169.04179687 448.84359375 -169.96484375 448.0546875 C-172.44443144 445.87650837 -174.85651465 443.6475282 -177.25 441.375 C-178.04204834 440.62379883 -178.04204834 440.62379883 -178.85009766 439.85742188 C-186.9751157 432.09662088 -194.24453687 424.0316977 -200.97949219 415.04248047 C-202.18411294 413.4614736 -203.43852623 411.91877058 -204.6953125 410.37890625 C-228.99074005 380.34163328 -243.81430418 342.42877008 -251.5625 304.9375 C-251.70985596 304.23093262 -251.85721191 303.52436523 -252.0090332 302.79638672 C-254.94322676 287.53582998 -255.62826932 272.24764412 -255.5625 256.75 C-255.56034485 255.83057617 -255.5581897 254.91115234 -255.55596924 253.96386719 C-255.50205258 239.58775492 -254.97876919 225.52801847 -252.25 211.375 C-252.05664062 210.35696289 -251.86328125 209.33892578 -251.6640625 208.29003906 C-240.02748064 149.08354156 -208.06282897 93.76541394 -160.25 56.375 C-159.24195313 55.57320312 -158.23390625 54.77140625 -157.1953125 53.9453125 C-122.28885257 26.39751169 -81.16777227 9.1320845 -37.25 2.375 C-36.06583496 2.18953613 -34.88166992 2.00407227 -33.66162109 1.81298828 C-22.4406414 0.22215507 -11.32217287 -0.02301527 0 0 Z " fill="#5C5C99" transform="translate(255.25,-0.375)"/>
<path d="M0 0 C85.47 0 170.94 0 259 0 C255.26450203 3.73549797 251.56340551 7.21055562 247.5625 10.625 C246.95414307 11.14570068 246.34578613 11.66640137 245.71899414 12.20288086 C240.97010192 16.23855383 236.10548431 20.10512043 231.18188477 23.92431641 C227.20252337 27.0217833 223.32944396 30.21944689 219.5 33.5 C215.10645122 37.26380234 210.63394554 40.89202508 206.0625 44.4375 C200.55796744 48.71002924 195.2432477 53.16335105 189.97558594 57.72363281 C185.86061646 61.28095538 181.66912101 64.71905421 177.40234375 68.09375 C174.87278983 70.10094075 172.37174062 72.13965331 169.875 74.1875 C168.96363281 74.93386719 168.05226563 75.68023437 167.11328125 76.44921875 C165.45683528 77.80597342 163.80095214 79.16340062 162.14599609 80.52197266 C134.9389263 102.83969493 134.9389263 102.83969493 129.8515625 103.1171875 C129.11679687 103.03726563 128.38203125 102.95734375 127.625 102.875 C126.89539063 102.81054688 126.16578125 102.74609375 125.4140625 102.6796875 C119.6793717 101.06506582 115.23701566 96.64171965 110.8125 92.8125 C109.65815426 91.82481661 108.50319777 90.83784661 107.34765625 89.8515625 C106.77934082 89.3659082 106.21102539 88.88025391 105.62548828 88.37988281 C102.47836353 85.70827736 99.27038895 83.11154872 96.0703125 80.50390625 C92.24780691 77.38657026 88.43461513 74.2580706 84.625 71.125 C83.89273193 70.52284668 83.16046387 69.92069336 82.40600586 69.30029297 C78.00783294 65.6760852 73.64624937 62.01335033 69.3125 58.3125 C65.0021156 54.63316444 60.60444807 51.09611988 56.125 47.625 C50.44175004 43.2196312 45.00768365 38.58086574 39.60595703 33.83642578 C35.50327606 30.25175473 31.31179502 26.82932216 27 23.5 C21.85021871 19.51805123 16.857298 15.3881812 11.9375 11.125 C11.31810547 10.58939453 10.69871094 10.05378906 10.06054688 9.50195312 C6.55273189 6.43981891 3.30972054 3.30972054 0 0 Z " fill="#FEFEFE" transform="translate(129,173)"/>
<path d="M0 0 C2.74726377 1.06144282 4.49606535 2.3786317 6.71875 4.3046875 C12.36719896 8.83463172 16.98726147 11.27600264 24.34375 10.9921875 C30.05019486 10.20206437 33.96249505 7.43745469 38.40625 3.9296875 C39.9221875 2.7540625 39.9221875 2.7540625 41.46875 1.5546875 C42.4278125 0.7503125 42.4278125 0.7503125 43.40625 -0.0703125 C46.83581314 1.21884897 49.89172223 2.70825858 53.01171875 4.625 C53.89923828 5.16769531 54.78675781 5.71039063 55.70117188 6.26953125 C56.65572266 6.85863281 57.61027344 7.44773437 58.59375 8.0546875 C59.60115234 8.67214844 60.60855469 9.28960937 61.64648438 9.92578125 C64.90232465 11.92291007 68.15457899 13.92577862 71.40625 15.9296875 C73.56894333 17.26052569 75.73170357 18.59125517 77.89453125 19.921875 C81.16314711 21.93327426 84.43142987 23.94520507 87.69873047 25.95874023 C94.85757091 30.36897366 102.03210655 34.75242852 109.21875 39.1171875 C118.40197038 44.69548352 127.54847817 50.33073064 136.67578125 56 C139.64386839 57.84242589 142.61872429 59.67235443 145.60546875 61.484375 C146.22470215 61.86094238 146.84393555 62.23750977 147.48193359 62.62548828 C149.08654302 63.59944155 150.69355641 64.56943129 152.30078125 65.5390625 C152.99558594 65.99796875 153.69039063 66.456875 154.40625 66.9296875 C154.40625 67.2596875 154.40625 67.5896875 154.40625 67.9296875 C112.65346755 69.10945391 70.89160291 69.23658977 29.12543356 69.44709623 C20.35199702 69.49154283 11.57859007 69.54072512 2.8051815 69.59034157 C-35.66105011 69.80780634 -74.12675145 70.02362476 -112.59375 69.9296875 C-109.38653522 67.33672167 -106.20621293 64.95758514 -102.69921875 62.78515625 C-101.7558667 62.19839111 -100.81251465 61.61162598 -99.84057617 61.00708008 C-98.83099854 60.38341553 -97.8214209 59.75975098 -96.78125 59.1171875 C-94.61453998 57.7709031 -92.44787458 56.42454689 -90.28125 55.078125 C-88.61835938 54.04703613 -88.61835938 54.04703613 -86.921875 52.99511719 C-81.70137018 49.75527925 -76.4910944 46.49913077 -71.28125 43.2421875 C-70.27989014 42.61658936 -69.27853027 41.99099121 -68.24682617 41.34643555 C-61.42665147 37.08319884 -54.62183949 32.79630746 -47.82617188 28.49414062 C-43.41713867 25.70536179 -38.99974194 22.9305173 -34.57421875 20.16796875 C-33.5375708 19.52085937 -32.50092285 18.87375 -31.43286133 18.20703125 C-29.35181231 16.90961995 -27.26963888 15.61401027 -25.1862793 14.3203125 C-20.79301422 11.58624968 -16.41826392 8.84225108 -12.1328125 5.94140625 C-11.16855347 5.29401489 -11.16855347 5.29401489 -10.18481445 4.63354492 C-8.54836209 3.52587895 -6.9239554 2.40047163 -5.30078125 1.2734375 C-2.59375 -0.0703125 -2.59375 -0.0703125 0 0 Z " fill="#FDFEFE" transform="translate(235.59375,268.0703125)"/>
<path d="M0 0 C4.65860548 2.66206027 8.15575249 4.73405577 12.125 8.0625 C13.06472656 8.84625 14.00445312 9.63 14.97265625 10.4375 C22.51314445 16.8201584 22.51314445 16.8201584 26.23291016 19.98266602 C30.23335869 23.37610493 34.3093202 26.66109067 38.421875 29.91796875 C41.40967168 32.33084092 44.33056197 34.81796079 47.25 37.3125 C51.70639633 41.11744553 56.24178606 44.7878906 60.875 48.375 C66.61873736 52.82914667 72.12734753 57.50929736 77.59619141 62.29541016 C82.9642242 66.99015951 88.45551004 71.51512368 94 76 C96.86445877 78.35013262 99.72728268 80.70224409 102.58984375 83.0546875 C104.69398646 84.7530069 106.8244087 86.39480735 109 88 C107.8612567 91.41622991 107.35488495 91.69318636 104.4140625 93.49609375 C103.65826904 93.9657959 102.90247559 94.43549805 102.1237793 94.91943359 C101.29918213 95.42039551 100.47458496 95.92135742 99.625 96.4375 C97.87357087 97.52193025 96.12227225 98.60657132 94.37109375 99.69140625 C93.47374512 100.24328613 92.57639648 100.79516602 91.65185547 101.36376953 C87.64411723 103.83659789 83.66595126 106.3554268 79.6875 108.875 C78.52565186 109.60867798 78.52565186 109.60867798 77.34033203 110.35717773 C71.21768295 114.22368627 65.10768288 118.10990531 59 122 C49.80562406 127.85606583 40.59525092 133.68624325 31.375 139.50146484 C28.87430638 141.07930792 26.37453756 142.6586075 23.875 144.23828125 C23.02768311 144.77372559 22.18036621 145.30916992 21.30737305 145.86083984 C19.70199518 146.87537456 18.09668381 147.8900145 16.49145508 148.90478516 C15.03771656 149.82325527 13.58307977 150.74030554 12.12744141 151.65576172 C10.66136747 152.58211048 9.20037277 153.51653047 7.74365234 154.45751953 C7.02773926 154.91626465 6.31182617 155.37500977 5.57421875 155.84765625 C4.93444092 156.26152588 4.29466309 156.67539551 3.63549805 157.10180664 C2 158 2 158 0 158 C0 105.86 0 53.72 0 0 Z " fill="#FEFEFE" transform="translate(122,175)"/>
<path d="M0 0 C0 51.81 0 103.62 0 157 C-3.63179254 155.54728298 -6.26496198 154.33490636 -9.45703125 152.26953125 C-10.30998779 151.72151855 -11.16294434 151.17350586 -12.04174805 150.60888672 C-12.95609619 150.0160791 -13.87044434 149.42327148 -14.8125 148.8125 C-16.79368908 147.53945876 -18.77548127 146.26735575 -20.7578125 144.99609375 C-21.78422852 144.33722168 -22.81064453 143.67834961 -23.86816406 142.99951172 C-28.95140075 139.75413376 -34.0688908 136.564189 -39.1875 133.375 C-47.06345511 128.46329658 -54.92467695 123.52975708 -62.76708984 118.56469727 C-68.21973766 115.11596965 -73.68779055 111.69253967 -79.16210938 108.27832031 C-82.24160978 106.35673497 -85.31834039 104.43078411 -88.39453125 102.50390625 C-91.7994116 100.37133056 -95.21186622 98.25266768 -98.63671875 96.15234375 C-99.92467344 95.351875 -101.2124517 94.55112226 -102.5 93.75 C-103.5828125 93.08484375 -104.665625 92.4196875 -105.78125 91.734375 C-106.87953125 90.87585938 -106.87953125 90.87585938 -108 90 C-108 89.01 -108 88.02 -108 87 C-106.00691077 85.03720088 -104.02873221 83.27134929 -101.875 81.5 C-101.24408447 80.97027588 -100.61316895 80.44055176 -99.96313477 79.89477539 C-95.11994157 75.85467343 -90.1740682 71.94934853 -85.19189453 68.08276367 C-80.5621359 64.47975034 -76.07792721 60.72767755 -71.61743164 56.91821289 C-67.62694343 53.5144713 -63.56583325 50.21619407 -59.45703125 46.95703125 C-54.93215119 43.35295349 -50.47206897 39.6692291 -46 36 C-44.16689838 34.49971683 -42.33356573 32.99971592 -40.5 31.5 C-37.80790053 29.29771834 -35.11607386 27.09511364 -32.42578125 24.890625 C-26.18387024 19.77766949 -19.92556935 14.68530817 -13.6574707 9.60449219 C-13.01124756 9.08016602 -12.36502441 8.55583984 -11.69921875 8.015625 C-11.0757959 7.51095703 -10.45237305 7.00628906 -9.81005859 6.48632812 C-8.06460533 5.05305061 -6.35549396 3.58346708 -4.64453125 2.109375 C-2 0 -2 0 0 0 Z " fill="#FCFDFE" transform="translate(393,176)"/>
</svg>
